# xmcd CD database file
# Copyright (C) 1995-1998 Ti Kan
#
# Track frame offsets:
#	150
#	19482
#	38767
#	55495
#	73402
#	90450
#	107957
#	128810
#	145972
#	158100
#	184757
#
# Disc length: 2748 seconds
#
# Revision: 1
# Processed by: cddbd v1.4PL0 Copyright (c) Steve Scherf et al.
# Submitted via: CDex 1.30Release
#
DISCID=a10aba0b
DTITLE=Red Vans - Skinny Dippin'
DYEAR=1900
DGENRE=Country
TTITLE0=Big Smilin' Moon
TTITLE1=Denims and Lace
TTITLE2=I beg Your Mercy
TTITLE3=Red Van Man
TTITLE4=Mr Sunshine
TTITLE5=Andrew and Babs
TTITLE6=Between the Bars
TTITLE7=Our Love
TTITLE8=Go Boy Go
TTITLE9=Skinny Dippin'
TTITLE10=Country Home
EXTD=ID3G:   2
EXTT0=
EXTT1=
EXTT2=
EXTT3=
EXTT4=
EXTT5=
EXTT6=
EXTT7=
EXTT8=
EXTT9=
EXTT10=
PLAYORDER=
